<svg width="176" height="64" viewBox="0 0 176 64" fill="none" xmlns="http://www.w3.org/2000/svg">
<path d="M34.4382 49.4168V27.7413L41.0675 31.316L39.9503 32.8806L36.8217 33.8499V47.7771L34.4382 49.4168Z" fill="black"/>
<path d="M30.044 49.4168V27.7413L23.4893 31.316L24.6058 32.8806L27.6598 33.8499V47.7771L30.044 49.4168Z" fill="black"/>
<path d="M32.2783 49.4902L13.8799 54.1081L32.2783 50.9056V49.4902Z" fill="black"/>
<path d="M32.2783 51.4282L10.5276 56.4177L32.2783 53.0661V51.4282Z" fill="black"/>
<path d="M32.2783 53.7378L6.28253 59.2492L32.2783 55.9716V53.7378Z" fill="black"/>
<path d="M32.2783 56.8657L0.621338 62.1528L32.2783 61.1114V56.8657Z" fill="black"/>
<path d="M32.2783 49.4902L50.6761 54.1081L32.2783 50.9056V49.4902Z" fill="#9C9C9A"/>
<path d="M32.2783 51.4282L54.0278 56.4177L32.2783 53.0661V51.4282Z" fill="#9C9C9A"/>
<path d="M32.2783 53.7378L58.1996 59.2492L32.2783 55.9716V53.7378Z" fill="#9C9C9A"/>
<path d="M32.2783 56.8657L63.9353 62.1528L32.2783 61.1114V56.8657Z" fill="#9C9C9A"/>
<path d="M30.5646 27.5177V49.5653L32.2783 49.1173V26.6235L30.5646 27.5177Z" fill="black"/>
<path d="M32.2783 26.6235V49.1173L33.9914 49.5653V27.5177L32.2783 26.6235Z" fill="#9C9C9A"/>
<path d="M21.9246 32.135V51.6519L23.4892 51.279V31.316L21.9246 32.135Z" fill="black"/>
<path d="M24.978 32.135L23.4893 31.316V51.279L24.978 50.9056V32.135Z" fill="#9C9C9A"/>
<path d="M21.0305 32.0617L32.0547 26.0283L26.6172 21.7073L21.0305 32.0617Z" fill="black"/>
<path d="M28.5533 22.8245C28.4794 21.8565 28.4042 20.6653 28.1811 20.3664C28.1072 20.2925 27.958 20.2179 27.6598 20.2179C27.3615 20.2179 27.1379 20.2925 27.1379 20.3664C27.0639 20.5156 26.9154 20.9617 26.9154 21.4843L28.5533 22.8245Z" fill="black"/>
<path d="M27.8835 19.4735H27.2876V20.7392H27.8835V19.4735Z" fill="black"/>
<path d="M27.5852 19.622C28.0378 19.622 28.4048 19.2551 28.4048 18.8025C28.4048 18.3498 28.0378 17.9829 27.5852 17.9829C27.1326 17.9829 26.7656 18.3498 26.7656 18.8025C26.7656 19.2551 27.1326 19.622 27.5852 19.622Z" fill="black"/>
<path d="M27.5852 18.0581C27.5107 18.0581 27.4361 18.0581 27.4361 18.0581C27.8835 18.0581 28.1811 18.4297 28.1811 18.877C28.1811 19.0255 28.1072 19.1747 28.1072 19.2498C28.2557 19.1001 28.3302 18.9516 28.3302 18.7273C28.3302 18.3557 28.0326 18.0581 27.5852 18.0581Z" fill="#9C9C9A"/>
<path d="M32.2783 23.9417L28.777 22.9737L32.2783 25.8046V23.9417Z" fill="#9C9C9A"/>
<path d="M42.5569 32.135V51.6519L41.0675 51.279V31.316L42.5569 32.135Z" fill="#9C9C9A"/>
<path d="M39.5035 32.135L41.0675 31.316V51.279L39.5035 50.9056V32.135Z" fill="black"/>
<path d="M32.4269 26.0283L43.525 32.0617L37.8638 21.7073L32.4269 26.0283Z" fill="#9C9C9A"/>
<path d="M36.0028 22.8245C36.0761 21.8565 36.1507 20.6653 36.375 20.3664C36.4496 20.2925 36.5981 20.2179 36.8957 20.2179C37.194 20.2179 37.4176 20.2925 37.4176 20.3664C37.4916 20.5156 37.6413 20.9617 37.6413 21.4843L36.0028 22.8245Z" fill="black"/>
<path d="M37.1939 19.4735H36.598V20.7392H37.1939V19.4735Z" fill="black"/>
<path d="M32.2783 23.9417L35.7791 22.9737L32.2783 25.8046V23.9417Z" fill="black"/>
<path d="M33.6186 17.6107H32.2783V23.6447L33.8423 23.1973L33.6186 17.6107Z" fill="#9C9C9A"/>
<path d="M32.2783 23.6447V17.6107H30.9368L30.7137 23.1973L32.2783 23.6447Z" fill="black"/>
<path d="M30.7138 17.7598C30.5646 17.7598 30.4161 17.6107 30.4161 17.4622C30.4161 17.3124 30.5646 17.1633 30.7138 17.1633H33.7678C33.9169 17.1633 34.066 17.3124 34.066 17.4622C34.066 17.6107 33.9163 17.7598 33.7678 17.7598H30.7138Z" fill="black"/>
<path d="M33.9915 17.4622C33.9915 17.387 33.9163 17.2385 33.7678 17.2385H31.0866C32.0547 17.3124 33.6186 17.3124 33.9915 17.4622Z" fill="#9C9C9A"/>
<path d="M30.9369 15.8976C30.7883 15.8976 30.6392 15.7479 30.6392 15.5994C30.6392 15.4509 30.7883 15.3017 30.9369 15.3017H33.6186C33.7671 15.3017 33.9163 15.4509 33.9163 15.5994C33.9163 15.7485 33.7671 15.8976 33.6186 15.8976H30.9369Z" fill="black"/>
<path d="M29.7457 10.311C29.6711 10.311 29.5959 10.2364 29.5959 10.1625C29.5959 10.0879 29.6711 10.0127 29.7457 10.0127H34.6619C34.7352 10.0127 34.8104 10.0879 34.8104 10.1625C34.8104 10.2364 34.7352 10.311 34.6619 10.311H29.7457Z" fill="black"/>
<path d="M32.2038 1.29816C32.3529 1.22422 32.3529 1.22422 32.3529 1.29816L32.5014 12.8436C32.5014 12.9928 32.3529 13.0667 32.2038 13.0667C32.0546 13.0667 31.9055 12.9182 31.9055 12.8436L32.2038 1.29816Z" fill="black"/>
<path d="M33.6932 17.09C33.6932 16.7172 33.6193 16.2704 33.5447 15.9722H30.8642C30.789 16.345 30.7144 16.7172 30.7144 17.09C30.7144 17.1639 30.7144 17.1639 30.7144 17.2385H33.6199C33.6932 17.1633 33.6932 17.09 33.6932 17.09Z" fill="black"/>
<path d="M33.5441 17.09C33.5441 16.7172 33.4695 16.2704 33.395 15.9722H31.0866C32.0547 16.0467 33.3204 16.1952 33.5441 17.09Z" fill="#9C9C9A"/>
<path d="M33.0228 14.5567H31.4594L31.0866 15.7479H33.395L33.0228 14.5567Z" fill="black"/>
<path d="M33.7678 15.6745C33.7678 15.5994 33.6932 15.4509 33.5447 15.4509H31.0866C31.9801 15.5254 33.4701 15.5254 33.7678 15.6745Z" fill="#9C9C9A"/>
<path d="M36.8957 19.622C37.3483 19.622 37.7153 19.2551 37.7153 18.8025C37.7153 18.3498 37.3483 17.9829 36.8957 17.9829C36.443 17.9829 36.0761 18.3498 36.0761 18.8025C36.0761 19.2551 36.443 19.622 36.8957 19.622Z" fill="black"/>
<path d="M36.8957 18.0581C36.8218 18.0581 36.7472 18.0581 36.7472 18.0581C37.1939 18.0581 37.4916 18.4297 37.4916 18.877C37.4916 19.0255 37.4176 19.1747 37.4176 19.2498C37.5661 19.1001 37.6413 18.9516 37.6413 18.7273C37.6413 18.3557 37.2685 18.0581 36.8957 18.0581Z" fill="#9C9C9A"/>
<path d="M32.2784 15.0787C32.9366 15.0787 33.4701 14.5451 33.4701 13.8869C33.4701 13.2287 32.9366 12.6951 32.2784 12.6951C31.6202 12.6951 31.0866 13.2287 31.0866 13.8869C31.0866 14.5451 31.6202 15.0787 32.2784 15.0787Z" fill="black"/>
<path d="M32.2784 12.8436C32.2032 12.8436 32.1286 12.8436 32.0547 12.8436C32.6512 12.9182 33.1719 13.365 33.1719 14.0348C33.1719 14.2585 33.0973 14.4076 33.0228 14.6313C33.2465 14.4076 33.3204 14.1839 33.3204 13.8863C33.3204 13.365 32.7997 12.8436 32.2784 12.8436Z" fill="#9C9C9A"/>
<path d="M32.2783 10.4601C32.4427 10.4601 32.576 10.3268 32.576 10.1625C32.576 9.99809 32.4427 9.86483 32.2783 9.86483C32.114 9.86483 31.9807 9.99809 31.9807 10.1625C31.9807 10.3268 32.114 10.4601 32.2783 10.4601Z" fill="black"/>
<path d="M30.0439 42.9348L24.0845 44.574V51.1299L30.0439 49.6393V42.9348Z" fill="black"/>
<path d="M34.4382 42.9348L40.397 44.574V51.1299L34.4382 49.6393V42.9348Z" fill="#9C9C9A"/>
<path d="M32.2783 9.56658C32.2031 9.11921 31.7564 8.82095 31.3842 8.89614C31.012 8.9707 30.7883 9.26833 30.8635 9.64053C30.9368 9.93816 31.1611 10.0879 31.4594 10.0879C31.6825 10.0127 31.831 9.86421 31.757 9.64053C31.757 9.4914 31.5333 9.34289 31.3842 9.34289C31.2357 9.34289 31.1611 9.4914 31.1611 9.64053C31.1611 9.78903 31.3096 9.86421 31.3842 9.78903C31.4594 9.78903 31.5333 9.71509 31.5333 9.56658C31.5333 9.4914 31.4594 9.41684 31.3842 9.4914" stroke="black" stroke-width="0.1259" stroke-miterlimit="10" stroke-linecap="round" stroke-linejoin="round"/>
<path d="M32.2783 9.56658C32.3523 9.11921 32.799 8.82095 33.1718 8.89614C33.5447 8.9707 33.7677 9.26833 33.6932 9.64053C33.6192 9.93816 33.3955 10.0879 33.0973 10.0879C32.8748 10.0127 32.7245 9.86421 32.7996 9.64053C32.7996 9.4914 33.0227 9.34289 33.1718 9.34289C33.3203 9.34289 33.3949 9.4914 33.3949 9.64053C33.3949 9.78903 33.2464 9.86421 33.1718 9.78903C33.0973 9.78903 33.0227 9.71509 33.0227 9.56658C33.0227 9.4914 33.0973 9.41684 33.1718 9.4914" stroke="black" stroke-width="0.1259" stroke-miterlimit="10" stroke-linecap="round" stroke-linejoin="round"/>
<path d="M31.7564 11.279C31.8309 11.2039 31.8309 11.1305 31.7564 11.1305C31.6818 11.0554 31.6066 11.0554 31.5327 11.1305C31.4588 11.2045 31.4588 11.3536 31.5327 11.4282C31.6066 11.5027 31.7564 11.5027 31.9049 11.4282C32.0546 11.279 31.9801 11.0554 31.9049 10.9062C31.6073 10.311 30.8635 10.311 30.6392 10.5347C30.4907 10.6832 30.4907 10.9808 30.7137 10.9808C31.012 11.0554 30.9368 10.7577 30.7883 10.7577" stroke="black" stroke-width="0.1259" stroke-miterlimit="10" stroke-linecap="round" stroke-linejoin="round"/>
<path d="M32.7245 11.279C32.6512 11.2039 32.6512 11.1305 32.7245 11.1305C32.7997 11.0554 32.8742 11.0554 32.9482 11.1305C33.0227 11.2045 33.0227 11.3536 32.9482 11.4282C32.8742 11.5027 32.7245 11.5027 32.576 11.4282C32.4268 11.279 32.5008 11.0554 32.576 10.9062C32.8742 10.311 33.6186 10.311 33.8423 10.5347C33.9914 10.6832 33.9914 10.9808 33.7677 10.9808C33.4701 11.0554 33.5447 10.7577 33.6932 10.7577" stroke="black" stroke-width="0.1259" stroke-miterlimit="10" stroke-linecap="round" stroke-linejoin="round"/>
<path d="M65.032 35.24L65.224 33.632C65.832 33.536 66.248 33.344 66.472 33.056C66.696 32.768 66.808 32.272 66.808 31.568L66.832 22.376C66.832 21.88 66.776 21.552 66.664 21.392C66.552 21.216 66.32 21.128 65.968 21.128C65.824 21.128 65.664 21.136 65.488 21.152C65.312 21.152 65.224 21.152 65.224 21.152L65.104 20.96L65.296 19.568C65.488 19.568 65.768 19.576 66.136 19.592C66.504 19.592 66.896 19.592 67.312 19.592C67.744 19.592 68.144 19.592 68.512 19.592C68.784 19.592 69.12 19.584 69.52 19.568C69.936 19.552 70.344 19.536 70.744 19.52C71.144 19.504 71.48 19.488 71.752 19.472C72.024 19.44 72.16 19.424 72.16 19.424L71.992 21.08C71.448 21.144 71.048 21.24 70.792 21.368C70.552 21.48 70.392 21.656 70.312 21.896C70.248 22.12 70.2 22.448 70.168 22.88C70.104 23.744 70.048 24.68 70 25.688C69.968 26.68 69.944 27.688 69.928 28.712C69.912 29.736 69.904 30.728 69.904 31.688C69.904 32.088 69.936 32.4 70 32.624C70.08 32.832 70.232 32.976 70.456 33.056C70.68 33.12 71 33.152 71.416 33.152C71.992 33.152 72.464 33.112 72.832 33.032C73.2 32.936 73.488 32.76 73.696 32.504C73.92 32.232 74.096 31.864 74.224 31.4C74.352 30.92 74.464 30.296 74.56 29.528L76.504 29.312L76.672 29.552C76.672 29.552 76.632 29.808 76.552 30.32C76.488 30.832 76.408 31.496 76.312 32.312C76.216 33.128 76.128 34.008 76.048 34.952L75.808 35.192C75.808 35.192 75.592 35.184 75.16 35.168C74.728 35.152 74.168 35.128 73.48 35.096C72.808 35.08 72.08 35.056 71.296 35.024C70.528 35.008 69.792 35 69.088 35C68.4 35 67.744 35.016 67.12 35.048C66.496 35.096 65.992 35.136 65.608 35.168C65.224 35.216 65.032 35.24 65.032 35.24ZM93.8506 35.264L94.0186 33.656C94.6426 33.576 95.1066 33.464 95.4106 33.32C95.7146 33.16 95.9146 32.928 96.0106 32.624C96.1226 32.32 96.1786 31.904 96.1786 31.376V30.632C96.1786 30.216 96.1306 29.832 96.0346 29.48C95.9386 29.128 95.7546 28.688 95.4826 28.16L93.1306 23.6C92.8906 23.104 92.6586 22.696 92.4346 22.376C92.2106 22.04 91.9386 21.776 91.6186 21.584C91.3146 21.392 90.9066 21.256 90.3946 21.176L90.3466 21.056L90.5146 19.544C90.5146 19.544 90.6266 19.552 90.8506 19.568C91.0906 19.568 91.3706 19.576 91.6906 19.592C92.0266 19.592 92.3706 19.6 92.7226 19.616C93.0746 19.616 93.3626 19.616 93.5866 19.616C93.9066 19.616 94.2826 19.608 94.7146 19.592C95.1466 19.576 95.5626 19.552 95.9626 19.52C96.3786 19.488 96.7226 19.464 96.9946 19.448C97.2826 19.432 97.4266 19.424 97.4266 19.424L97.5226 19.64L97.4026 20.984C96.8426 21.032 96.4586 21.112 96.2506 21.224C96.0426 21.32 95.9386 21.488 95.9386 21.728C95.9386 21.856 96.0026 22.088 96.1306 22.424C96.2586 22.744 96.4186 23.128 96.6106 23.576C96.8026 24.024 96.9946 24.472 97.1866 24.92C97.3946 25.352 97.5706 25.736 97.7146 26.072C97.8746 26.408 97.9786 26.632 98.0266 26.744H98.2426L100.187 22.712C100.427 22.248 100.547 21.872 100.547 21.584C100.547 21.408 100.443 21.272 100.235 21.176C100.043 21.08 99.7306 21.024 99.2986 21.008L99.2506 20.888L99.4186 19.52C99.6106 19.52 99.8826 19.528 100.235 19.544C100.603 19.56 100.995 19.576 101.411 19.592C101.843 19.608 102.235 19.616 102.587 19.616C102.955 19.616 103.323 19.608 103.691 19.592C104.059 19.576 104.371 19.56 104.627 19.544C104.883 19.528 105.011 19.52 105.011 19.52L105.107 19.688L104.939 21.128C104.491 21.272 104.107 21.472 103.787 21.728C103.483 21.968 103.195 22.288 102.923 22.688C102.667 23.072 102.363 23.576 102.011 24.2L99.7306 28.496C99.5866 28.768 99.4826 29.048 99.4186 29.336C99.3546 29.624 99.3146 29.968 99.2986 30.368C99.2826 30.752 99.2746 31.248 99.2746 31.856C99.2586 32.448 99.3306 32.864 99.4906 33.104C99.6506 33.328 99.9466 33.44 100.379 33.44C100.651 33.44 100.915 33.432 101.171 33.416C101.443 33.384 101.579 33.368 101.579 33.368L101.675 33.488L101.459 35.096C101.459 35.096 101.315 35.088 101.027 35.072C100.739 35.072 100.379 35.064 99.9466 35.048C99.5306 35.032 99.0986 35.016 98.6506 35C98.2186 35 97.8506 35 97.5466 35C97.1946 35 96.8106 35.016 96.3946 35.048C95.9786 35.08 95.5786 35.104 95.1946 35.12C94.8106 35.152 94.4906 35.184 94.2346 35.216C93.9786 35.248 93.8506 35.264 93.8506 35.264ZM128.749 35.384C128.269 33.832 127.797 32.36 127.333 30.968C126.869 29.56 126.437 28.28 126.037 27.128C125.637 25.96 125.293 24.968 125.005 24.152H124.813C124.813 24.296 124.797 24.592 124.765 25.04C124.733 25.488 124.693 26.016 124.645 26.624C124.613 27.232 124.573 27.872 124.525 28.544C124.477 29.2 124.429 29.832 124.381 30.44C124.349 31.032 124.317 31.536 124.285 31.952C124.269 32.368 124.261 32.624 124.261 32.72C124.261 33.232 124.517 33.488 125.029 33.488C125.125 33.488 125.277 33.488 125.485 33.488C125.693 33.472 125.813 33.464 125.845 33.464L125.989 33.584L125.725 35.096C125.565 35.096 125.301 35.088 124.933 35.072C124.581 35.056 124.213 35.04 123.829 35.024C123.461 35.008 123.157 35 122.917 35C122.725 35 122.493 35.008 122.221 35.024C121.949 35.04 121.685 35.064 121.429 35.096C121.173 35.128 120.957 35.152 120.781 35.168C120.621 35.184 120.541 35.192 120.541 35.192L120.685 33.632C121.165 33.584 121.501 33.44 121.693 33.2C121.901 32.944 122.053 32.512 122.149 31.904C122.181 31.728 122.221 31.384 122.269 30.872C122.317 30.36 122.373 29.752 122.437 29.048C122.517 28.344 122.589 27.624 122.653 26.888C122.733 26.136 122.805 25.424 122.869 24.752C122.949 24.08 123.005 23.52 123.037 23.072C123.085 22.608 123.109 22.328 123.109 22.232C123.109 21.928 123.053 21.704 122.941 21.56C122.845 21.4 122.661 21.28 122.389 21.2C122.133 21.104 121.765 21.04 121.285 21.008L121.165 20.864L121.381 19.472C121.653 19.488 121.981 19.504 122.365 19.52C122.749 19.536 123.125 19.552 123.493 19.568C123.861 19.584 124.157 19.592 124.381 19.592C124.653 19.592 124.949 19.592 125.269 19.592C125.605 19.576 125.925 19.56 126.229 19.544C126.533 19.528 126.765 19.512 126.925 19.496C127.261 20.712 127.597 21.872 127.933 22.976C128.269 24.064 128.573 25.056 128.845 25.952C129.133 26.848 129.373 27.608 129.565 28.232C129.773 28.856 129.917 29.296 129.997 29.552H130.189C130.269 29.312 130.405 28.88 130.597 28.256C130.805 27.632 131.053 26.872 131.341 25.976C131.645 25.08 131.973 24.088 132.325 23C132.677 21.912 133.037 20.768 133.405 19.568C133.629 19.568 133.901 19.576 134.221 19.592C134.557 19.608 134.901 19.616 135.253 19.616C135.605 19.616 135.933 19.608 136.237 19.592C136.493 19.592 136.797 19.584 137.149 19.568C137.517 19.536 137.845 19.512 138.133 19.496C138.421 19.464 138.605 19.448 138.685 19.448L138.781 19.544L138.637 20.984C137.965 21.032 137.501 21.152 137.245 21.344C136.989 21.52 136.861 21.824 136.861 22.256C136.861 22.464 136.869 22.816 136.885 23.312C136.917 23.808 136.949 24.392 136.981 25.064C137.029 25.72 137.077 26.424 137.125 27.176C137.189 27.912 137.245 28.64 137.293 29.36C137.341 30.064 137.389 30.704 137.437 31.28C137.549 32.16 137.677 32.752 137.821 33.056C137.965 33.344 138.229 33.488 138.613 33.488C138.741 33.488 138.877 33.48 139.021 33.464C139.165 33.448 139.253 33.44 139.285 33.44L139.381 33.56L139.165 35.072C139.069 35.072 138.877 35.064 138.589 35.048C138.317 35.032 138.005 35.016 137.653 35C137.317 35 137.013 35 136.741 35C136.469 35 136.149 35.008 135.781 35.024C135.413 35.04 135.045 35.064 134.677 35.096C134.309 35.128 133.997 35.152 133.741 35.168C133.485 35.184 133.349 35.192 133.333 35.192L133.501 33.632C133.981 33.568 134.325 33.448 134.533 33.272C134.741 33.08 134.845 32.8 134.845 32.432C134.845 32.304 134.829 32.056 134.797 31.688C134.781 31.32 134.749 30.872 134.701 30.344C134.669 29.816 134.637 29.248 134.605 28.64C134.573 28.032 134.533 27.44 134.485 26.864C134.453 26.288 134.421 25.76 134.389 25.28C134.357 24.8 134.341 24.424 134.341 24.152H134.125C133.901 24.76 133.653 25.464 133.381 26.264C133.109 27.064 132.805 27.944 132.469 28.904C132.133 29.864 131.789 30.872 131.437 31.928C131.085 32.984 130.733 34.064 130.381 35.168L128.749 35.384ZM164.289 35.384C163.809 33.832 163.337 32.36 162.873 30.968C162.409 29.56 161.977 28.28 161.577 27.128C161.177 25.96 160.833 24.968 160.545 24.152H160.353C160.353 24.296 160.337 24.592 160.305 25.04C160.273 25.488 160.233 26.016 160.185 26.624C160.153 27.232 160.113 27.872 160.065 28.544C160.017 29.2 159.969 29.832 159.921 30.44C159.889 31.032 159.857 31.536 159.825 31.952C159.809 32.368 159.801 32.624 159.801 32.72C159.801 33.232 160.057 33.488 160.569 33.488C160.665 33.488 160.817 33.488 161.025 33.488C161.233 33.472 161.353 33.464 161.385 33.464L161.529 33.584L161.265 35.096C161.105 35.096 160.841 35.088 160.473 35.072C160.121 35.056 159.753 35.04 159.369 35.024C159.001 35.008 158.697 35 158.457 35C158.265 35 158.033 35.008 157.761 35.024C157.489 35.04 157.225 35.064 156.969 35.096C156.713 35.128 156.497 35.152 156.321 35.168C156.161 35.184 156.081 35.192 156.081 35.192L156.225 33.632C156.705 33.584 157.041 33.44 157.233 33.2C157.441 32.944 157.593 32.512 157.689 31.904C157.721 31.728 157.761 31.384 157.809 30.872C157.857 30.36 157.913 29.752 157.977 29.048C158.057 28.344 158.129 27.624 158.193 26.888C158.273 26.136 158.345 25.424 158.409 24.752C158.489 24.08 158.545 23.52 158.577 23.072C158.625 22.608 158.649 22.328 158.649 22.232C158.649 21.928 158.593 21.704 158.481 21.56C158.385 21.4 158.201 21.28 157.929 21.2C157.673 21.104 157.305 21.04 156.825 21.008L156.705 20.864L156.921 19.472C157.193 19.488 157.521 19.504 157.905 19.52C158.289 19.536 158.665 19.552 159.033 19.568C159.401 19.584 159.697 19.592 159.921 19.592C160.193 19.592 160.489 19.592 160.809 19.592C161.145 19.576 161.465 19.56 161.769 19.544C162.073 19.528 162.305 19.512 162.465 19.496C162.801 20.712 163.137 21.872 163.473 22.976C163.809 24.064 164.113 25.056 164.385 25.952C164.673 26.848 164.913 27.608 165.105 28.232C165.313 28.856 165.457 29.296 165.537 29.552H165.729C165.809 29.312 165.945 28.88 166.137 28.256C166.345 27.632 166.593 26.872 166.881 25.976C167.185 25.08 167.513 24.088 167.865 23C168.217 21.912 168.577 20.768 168.945 19.568C169.169 19.568 169.441 19.576 169.761 19.592C170.097 19.608 170.441 19.616 170.793 19.616C171.145 19.616 171.473 19.608 171.777 19.592C172.033 19.592 172.337 19.584 172.689 19.568C173.057 19.536 173.385 19.512 173.673 19.496C173.961 19.464 174.145 19.448 174.225 19.448L174.321 19.544L174.177 20.984C173.505 21.032 173.041 21.152 172.785 21.344C172.529 21.52 172.401 21.824 172.401 22.256C172.401 22.464 172.409 22.816 172.425 23.312C172.457 23.808 172.489 24.392 172.521 25.064C172.569 25.72 172.617 26.424 172.665 27.176C172.729 27.912 172.785 28.64 172.833 29.36C172.881 30.064 172.929 30.704 172.977 31.28C173.089 32.16 173.217 32.752 173.361 33.056C173.505 33.344 173.769 33.488 174.153 33.488C174.281 33.488 174.417 33.48 174.561 33.464C174.705 33.448 174.793 33.44 174.825 33.44L174.921 33.56L174.705 35.072C174.609 35.072 174.417 35.064 174.129 35.048C173.857 35.032 173.545 35.016 173.193 35C172.857 35 172.553 35 172.281 35C172.009 35 171.689 35.008 171.321 35.024C170.953 35.04 170.585 35.064 170.217 35.096C169.849 35.128 169.537 35.152 169.281 35.168C169.025 35.184 168.889 35.192 168.873 35.192L169.041 33.632C169.521 33.568 169.865 33.448 170.073 33.272C170.281 33.08 170.385 32.8 170.385 32.432C170.385 32.304 170.369 32.056 170.337 31.688C170.321 31.32 170.289 30.872 170.241 30.344C170.209 29.816 170.177 29.248 170.145 28.64C170.113 28.032 170.073 27.44 170.025 26.864C169.993 26.288 169.961 25.76 169.929 25.28C169.897 24.8 169.881 24.424 169.881 24.152H169.665C169.441 24.76 169.193 25.464 168.921 26.264C168.649 27.064 168.345 27.944 168.009 28.904C167.673 29.864 167.329 30.872 166.977 31.928C166.625 32.984 166.273 34.064 165.921 35.168L164.289 35.384Z" fill="#101319"/>
<path d="M64.924 51V42.54H66.46V46.068H70.816V42.54H72.352V51H70.816V47.352H66.46V51H64.924ZM80.3972 51.12C79.5812 51.12 78.8652 50.94 78.2492 50.58C77.6412 50.22 77.1692 49.716 76.8332 49.068C76.4972 48.412 76.3292 47.644 76.3292 46.764C76.3292 45.876 76.4972 45.108 76.8332 44.46C77.1692 43.812 77.6412 43.312 78.2492 42.96C78.8572 42.6 79.5732 42.42 80.3972 42.42C81.2212 42.42 81.9372 42.6 82.5452 42.96C83.1532 43.312 83.6252 43.812 83.9613 44.46C84.2973 45.108 84.4653 45.872 84.4653 46.752C84.4653 47.64 84.2973 48.412 83.9613 49.068C83.6252 49.716 83.1532 50.22 82.5452 50.58C81.9372 50.94 81.2212 51.12 80.3972 51.12ZM80.3972 49.8C81.1732 49.8 81.7772 49.532 82.2092 48.996C82.6413 48.46 82.8573 47.716 82.8573 46.764C82.8573 45.804 82.6413 45.06 82.2092 44.532C81.7852 44.004 81.1812 43.74 80.3972 43.74C79.6212 43.74 79.0172 44.004 78.5852 44.532C78.1532 45.06 77.9372 45.804 77.9372 46.764C77.9372 47.716 78.1532 48.46 78.5852 48.996C79.0172 49.532 79.6212 49.8 80.3972 49.8ZM88.4271 51V42.54H89.9631V49.692H94.0191V51H88.4271ZM97.5654 51V42.54H99.1014V51H97.5654ZM103.34 51V42.54H106.484C107.9 42.54 108.992 42.904 109.76 43.632C110.536 44.36 110.924 45.404 110.924 46.764C110.924 48.116 110.536 49.16 109.76 49.896C108.992 50.632 107.9 51 106.484 51H103.34ZM104.876 49.728H106.388C108.34 49.728 109.316 48.74 109.316 46.764C109.316 44.796 108.34 43.812 106.388 43.812H104.876V49.728ZM113.793 51L117.621 42.54H118.881L122.709 51H121.149L120.309 49.044H116.181L115.353 51H113.793ZM118.233 44.208L116.709 47.82H119.781L118.257 44.208H118.233ZM127.266 51V47.112L124.014 42.54H125.802L128.058 45.744L130.326 42.54H132.042L128.802 47.124V51H127.266ZM140.702 51V42.54H142.238V49.692H146.294V51H140.702ZM149.84 51V42.54H155.468V43.764H151.316V46.092H155.204V47.316H151.316V49.776H155.468V51H149.84ZM161.382 51V43.824H158.478V42.54H165.822V43.824H162.918V51H161.382ZM171.83 51.12C171.166 51.12 170.55 51.036 169.982 50.868C169.414 50.692 168.934 50.456 168.542 50.16L169.01 48.948C169.402 49.228 169.83 49.444 170.294 49.596C170.766 49.748 171.278 49.824 171.83 49.824C172.462 49.824 172.922 49.72 173.21 49.512C173.498 49.296 173.642 49.02 173.642 48.684C173.642 48.404 173.538 48.184 173.33 48.024C173.13 47.864 172.782 47.732 172.286 47.628L170.966 47.352C169.462 47.032 168.71 46.26 168.71 45.036C168.71 44.508 168.85 44.048 169.13 43.656C169.41 43.264 169.798 42.96 170.294 42.744C170.79 42.528 171.362 42.42 172.01 42.42C172.586 42.42 173.126 42.508 173.63 42.684C174.134 42.852 174.554 43.092 174.89 43.404L174.422 44.556C173.758 43.996 172.95 43.716 171.998 43.716C171.446 43.716 171.014 43.832 170.702 44.064C170.39 44.296 170.234 44.6 170.234 44.976C170.234 45.264 170.33 45.496 170.522 45.672C170.714 45.84 171.042 45.972 171.506 46.068L172.814 46.344C173.606 46.512 174.194 46.776 174.578 47.136C174.97 47.496 175.166 47.976 175.166 48.576C175.166 49.08 175.03 49.524 174.758 49.908C174.486 50.292 174.098 50.592 173.594 50.808C173.098 51.016 172.51 51.12 171.83 51.12Z" fill="#101319"/>
</svg>
